#!OML:ASF G:\JayActor3\Patient Classification 1\Patient 1\Session 6\male.ASF
:FULLY-SPECIFIED
:DEGREES
443
root 26.0071 16.0857 0.384403 174.692 -42.3643 -175.515
lowerback 2.49006 -1.85775 2.38301
upperback 3.46581 -2.55387 -0.169152
thorax 2.05403 -1.26307 -1.48971
lowerneck -6.1605 -0.452704 0.60404
upperneck 5.36458 -0.996299 4.12247
head 2.81115 -0.365329 1.1828
rclavicle 3.40419e-014 7.95139e-016
rhumerus -34.8211 0.454867 -88.4596
rradius 23.1839
rwrist 7.40851
rhand -17.2851 -4.70032
rfingers 7.12502
rthumb 8.96027 -34.49
lclavicle 3.40419e-014 7.95139e-016
lhumerus -24.1979 7.74187 81.6377
lradius 29.003
lwrist 17.7434
lhand -18.7288 11.5643
lfingers 7.12502
lthumb 7.56691 41.409
rfemur -24.6189 3.87343 25.6284
rtibia 63.5392
rfoot -18.8012 -16.3002
rtoes -5.28032
lfemur -5.9214 11.8257 -20.3482
ltibia 28.7885
lfoot -20.5587 5.61072
ltoes -2.77608
444
root 25.8977 16.0694 0.283287 174.772 -42.4485 -175.647
lowerback 2.53028 -1.90633 2.23453
upperback 3.48313 -2.62066 -0.153184
thorax 2.05336 -1.30047 -1.38868
lowerneck -6.15664 -0.442969 0.607759
upperneck 5.40156 -0.980619 4.07048
head 2.82197 -0.358334 1.16615
rclavicle 1.28415e-013 -7.55382e-015
rhumerus -35.1462 0.639902 -88.4853
rradius 23.4223
rwrist 7.12562
rhand -17.2865 -4.66961
rfingers 7.12502
rthumb 8.95886 -34.4594
lclavicle 1.28415e-013 -7.55382e-015
lhumerus -23.8154 7.10398 81.727
lradius 29.7621
lwrist 18.0878
lhand -18.702 11.4346
lfingers 7.12502
lthumb 7.59283 41.2783
rfemur -25.5395 4.04027 25.5484
rtibia 62.3818
rfoot -19.1102 -16.3536
rtoes -5.73252
lfemur -5.14017 11.9288 -20.3966
ltibia 28.5572
lfoot -20.9334 5.64948
ltoes -3.65114
445
root 25.7878 16.0587 0.180837 174.872 -42.5182 -175.81
lowerback 2.57618 -1.94714 2.06209
upperback 3.49785 -2.67705 -0.144882
thorax 2.04828 -1.33317 -1.28196
lowerneck -6.15431 -0.434124 0.613696
upperneck 5.43339 -0.96646 4.02212
head 2.83141 -0.352035 1.15018
rclavicle 7.74763e-014 -3.57812e-015
rhumerus -35.4645 0.821291 -88.5287
rradius 23.6496
rwrist 6.90257
rhand -17.324 -4.63541
rfingers 7.12502
rthumb 8.92273 -34.4267
lclavicle 7.74763e-014 -3.57812e-015
lhumerus -23.4528 6.48764 81.7897
lradius 30.5283
lwrist 18.4115
lhand -18.7082 11.3074
lfingers 7.12502
lthumb 7.58684 41.1514
rfemur -26.3788 4.17218 25.4464
rtibia 61.0918
rfoot -19.2908 -16.458
rtoes -6.24588
lfemur -4.30275 11.9806 -20.4566
ltibia 28.19
lfoot -21.2667 5.6679
ltoes -4.19258
446
root 25.6781 16.051 0.0771342 174.99 -42.577 -175.988
lowerback 2.6216 -1.98201 1.87109
upperback 3.50848 -2.72556 -0.140187
thorax 2.04054 -1.36227 -1.16859
lowerneck -6.14871 -0.426155 0.618394
upperneck 5.45805 -0.953405 3.97874
head 2.8379 -0.346326 1.13595
rclavicle -5.17337e-014 1.39149e-014
rhumerus -35.7772 1.00402 -88.5906
rradius 23.8688
rwrist 6.71728
rhand -17.3826 -4.605
rfingers 7.12502
rthumb 8.86618 -34.3987
lclavicle -5.17337e-014 1.39149e-014
lhumerus -23.1052 5.89415 81.8272
lradius 31.2953
lwrist 18.7182
lhand -18.7061 11.2726
lfingers 7.12502
lthumb 7.58887 41.1165
rfemur -27.1559 4.27644 25.3373
rtibia 59.6901
rfoot -19.377 -16.5922
rtoes -6.67115
lfemur -3.39892 12.0348 -20.5225
ltibia 27.6815
lfoot -21.5349 5.70612
ltoes -4.77032
447
root 25.5684 16.0455 -0.0278538 175.129 -42.6335 -176.204
lowerback 2.66962 -2.01344 1.65015
upperback 3.51923 -2.7698 -0.143979
thorax 2.03288 -1.38982 -1.04714
lowerneck -6.14625 -0.418462 0.625231
upperneck 5.47699 -0.940702 3.93526
head 2.84305 -0.340799 1.12127
rclavicle 9.19379e-015 -6.36111e-015
rhumerus -36.0759 1.17941 -88.6669
rradius 24.0708
rwrist 6.56623
rhand -17.4528 -4.59182
rfingers 7.12502
rthumb 8.79841 -34.3884
lclavicle 9.19379e-015 -6.36111e-015
lhumerus -22.7731 5.32731 81.8422
lradius 32.0657
lwrist 19.0368
lhand -18.6973 11.2416
lfingers 7.12502
lthumb 7.59735 41.0851
rfemur -27.8612 4.3545 25.1999
rtibia 58.1954
rfoot -19.4036 -16.7182
rtoes -6.90818
lfemur -2.42231 12.0764 -20.6135
ltibia 27.0375
lfoot -21.7461 5.76337
ltoes -5.30645
448
root 25.4588 16.0415 -0.13396 175.277 -42.686 -176.438
lowerback 2.71929 -2.04016 1.4194
upperback 3.53189 -2.8081 -0.154886
thorax 2.0269 -1.41456 -0.927574
lowerneck -6.14836 -0.411663 0.632235
upperneck 5.49189 -0.929463 3.89596
head 2.84778 -0.335889 1.10783
rclavicle 6.49032e-014 6.36111e-015
rhumerus -36.3593 1.34262 -88.7584
rradius 24.26
rwrist 6.43108
rhand -17.521 -4.60616
rfingers 7.12502
rthumb 8.73261 -34.4055
lclavicle 6.49032e-014 6.36111e-015
lhumerus -22.452 4.78253 81.8367
lradius 32.8294
lwrist 19.3546
lhand -18.7053 11.1896
lfingers 7.12502
lthumb 7.5896 41.0334
rfemur -28.5003 4.41628 25.0507
rtibia 56.6284
rfoot -19.3884 -16.8331
rtoes -6.88912
lfemur -1.37673 12.1032 -20.7154
ltibia 26.2638
lfoot -21.8945 5.83156
ltoes -5.7647
449
root 25.3491 16.0383 -0.240857 175.423 -42.7354 -176.674
lowerback 2.77165 -2.06284 1.19501
upperback 3.54799 -2.84132 -0.171455
thorax 2.02287 -1.43662 -0.817376
lowerneck -6.15668 -0.405588 0.64515
upperneck 5.49902 -0.919434 3.85566
head 2.85102 -0.331528 1.09295
rclavicle 7.00716e-015 -6.36111e-015
rhumerus -36.6213 1.48233 -88.8592
rradius 24.4299
rwrist 6.30628
rhand -17.5764 -4.6441
rfingers 7.12502
rthumb 8.67914 -34.4457
lclavicle 7.00716e-015 -6.36111e-015
lhumerus -22.1427 4.257 81.8139
lradius 33.5862
lwrist 19.6732
lhand -18.7075 11.1323
lfingers 7.12502
lthumb 7.58752 40.9762
rfemur -29.0781 4.46588 24.9007
rtibia 55.0037
rfoot -19.3403 -16.9442
rtoes -6.57498
lfemur -0.264471 12.1125 -20.8193
ltibia 25.3716
lfoot -21.9834 5.91127
ltoes -6.15946
